<svg id="Capa_2" data-name="Capa 2" xmlns="http://www.w3.org/2000/svg" xmlns:xlink="http://www.w3.org/1999/xlink" viewBox="0 0 497.21 566.9"><defs><style>.cls-1{fill:#57b483;}.cls-2,.cls-3{fill:#323a65;}.cls-2,.cls-7,.cls-8,.cls-9{stroke-miterlimit:10;}.cls-2{stroke-width:0.25px;stroke:url(#Degradado_sin_nombre_2);}.cls-4,.cls-7,.cls-8{fill:#fff;}.cls-5{fill:#6dc2bb;}.cls-6{fill:#e2e363;}.cls-7,.cls-9{stroke:#fff;}.cls-8{stroke:#57b483;}.cls-9{fill:none;}.cls-10{fill:#f6f6f6;}.cls-11{fill:#bc7c57;}.cls-12{fill:#8c6c93;}.cls-13{fill:#ec6165;}</style><linearGradient id="Degradado_sin_nombre_2" x1="211.01" y1="283.2" x2="694.43" y2="283.2" gradientUnits="userSpaceOnUse"><stop offset="0" stop-color="#fff"/><stop offset="1"/></linearGradient></defs><path class="cls-1" d="M394.8,154.51s36.66-65.29,123.07-38.11l46.78,25.11,15.67,111L551.67,376.27l-30.7,2-32.46,17.07-78.76,16.17L340.35,363,250.81,259.35l-6.27-50.58,36.94-53.17,43.88-17.86,57.53,13.47Z" transform="translate(-197.22 0.25)"/><path class="cls-2" d="M663.29,0S650,2.74,641.86,13.45c0,0,0,4.6-11.73,5.62,0,0-23,4.59-23.47,12.24,0,0-4.59,13.27-8.67,16.84a19.45,19.45,0,0,1-10.72,6.12,29.17,29.17,0,0,0,8.67,2.55s-12.75,17.35-30.1,27.55c0,0-8.67,5.1-4.59,13.27,0,0,2.92,5.61-1.09,8.67,0,0-4.15,5.61,0,13.78,0,0,1.09,9.69-11.66,6.12,0,0-6.13-9.18-12.76-8.67s-20.92,1.07-28.06,9.46c0,0-5.1,3.8-19.9,4.82,0,0-8.16,1-6.63,7.65,0,0,3.06,3.58,10.71,0,0,0,10.72-4,9.7,1.59a18.15,18.15,0,0,1-4.08,9.13l-4.09,5.61s9.7-4.59,9.7,0c0,0-2.55,9.69,3.06,15.82,0,0,4.08,6.12,2,9.69,0,0-2.55,9.7-1,14.8,0,0-3.06,11.22-3.57,15.3,0,0,6.63-9.18,8.67,0,0,0-.51,13.78,14.8,16.84,0,0,12.24-2.55,15.81,5.1,0,0,2.55,8.17,4.09,14.29,0,0,7.14,7.14,10.71,12.75,0,0,4.59,2.55,0,13.78,0,0-3.57,4.08-2.55,15.3,0,0,0,5.11-10.21,17.86,0,0-4.59,2.55-2,15.31,0,0,2.55,2.55-8.67,9.18,0,0-6.63,2-3.06,12.25,0,0-12.25,13.77-15.82,31.63,0,0,2,9.18-27.55,16.33,0,0-6.12-4.09-16.84,0a29.88,29.88,0,0,0,5.62-5.11s-2.55-3.57,4.08-11.22c0,0-6.12-5.61-9.7,4.59a4.31,4.31,0,0,1,0,6.63s-3.06,8.17-10.71,5.11c0,0-2.55-2,7.14-29.09,0,0,5.11-5.1,9.19-18.87a21.44,21.44,0,0,1,2.55-12.76s-2.55-15.3-13.27-7.14a45.83,45.83,0,0,0-1.53,25s-6.63,17.86-11.22,9.18c0,0,3.06-3.06-3.06-8.67s3.06-6.12-7.66-9.7a57.11,57.11,0,0,1,3.06-16.32s-3.06-.51-8.67-6.12c0,0-11.73-11.74-10.2,6.63,0,0-1.53,0,10.71,17.86l13.78,22.44s0,1.54-1.53,7.66c0,0,3.57,10.71.51,16.32,0,0,1.53,9.7-9.19,7.15,0,0-8.67-4.59-26.53-4.08,0,0-2.55-2-2-7.15,0,0,5.48-4.59-.07-8.16,0,0-5-1.53-2.48-8.16,0,0-2.45-13.27-13.22-6.13,0,0-5.66,0,7.61,12.25,0,0,1.12,16.84-7.61,12.24,0,0-4.13,1.53-16.37-8.16l-14.29-12.76A105.19,105.19,0,0,0,352.58,339s-4.08-8.16-14.8-12.24c0,0-5.61-4.08-3.57-16.33,0,0,9.69-30.61-3.06-43.87,0,0-.51,15.3-17.35,12.75,0,0-11.73-3.06-36.73-23.47,0,0-17.86-11.73-18.88-37.24,0,0,6.12-28.34,32.65-20.55,0,0,11.53-7.47-1-5-2.55.51-5.61-4.09-18.88.51,0,0-9.18,3.57,0-7.15,0,0,32.66-32.14,74.49-12.75a13.35,13.35,0,0,1,8.17-1s4.59-11.23-10.72-13.78c0,0-2.55,1.53-11.22,2,0,0-5.61-.51-5.61-7.65,0,0-4.08-3.57-9.19-3.57,0,0,5.11-10.72,12.25-5.1a219.76,219.76,0,0,0,24,6.63s14.79-5.1,17.34,1c0,0,19.9,5.61,2.05,22.45,0,0,6.12-1,6.12,3.57,0,0,0-9.18,10.2-16.84,0,0,3.06-.51,4.08,2,0,0,5.95-11.63-4.08-10.2-3.57.51-113.77-77.55-175.51,47.45,0,0-16.32,41.33,40.82,107.14,0,0,44.48,43.88,142.39,112.76a32.23,32.23,0,0,0,0,12.75,11.52,11.52,0,0,1-3.62,9.7,9.82,9.82,0,0,0-1,10.71s0,6.63-3.06,10.2c0,0,3.16,5.62,7.7,7.15a17,17,0,0,0,9.65-9.19s3.06-21.43-3.06-36.22c0,0,5.61-10.21,10.2-1,0,0-5.1,10.2-1,13.26,0,0,4.08-1,5.61-3.57,0,0-4.59-9.18-1-9.18,0,0,4.08-1,6.64,12.75,0,0-5.11,23-2.56,29.6l2.56,6.63a128.35,128.35,0,0,1,2,24s-1.53,8.67,2,13.77c0,0,4.08,6.13-.51,16.33,0,0-4.08,17.86-3.06,25.51a14.79,14.79,0,0,0,9.18,12.76s7.14-3.07,6.63-12.76c0,0,.51-4.08,5.61-8.16,0,0,5.11-2.55-5.61-21.94,0,0-2.55-5.61-11.73-19.39a72.47,72.47,0,0,0-1.53-26.53s-2.55-8.16-2-14.29c0,0,4.08-3.57,2.55-10.71,0,0,8.67-12.76,14.28-9.18,0,0,8.17-1,9.7,14.79,0,0,6.63,7.14,10.71,1,0,0,5.61-3.57,0-9.18l-3.57-6.12s20.92-13.78,27-13.27c0,0,7.14,0,11.74-7.65,0,0,2-10.21,5.61-6.63,0,0,9.18,7.14,0,25.51,0,0-2,4.08,2.55,6.63,0,0,6.12-2,7.14-7.65,0,0-2.55-19.39,3.57-22.45,0,0,5.1-4.09,3.06-8.68,0,0,4.6-13.26,12.76-9.69,0,0,2.55.51,2,11.22,0,0-.51,11.74,4.08,6.13,0,0,4.59-4.09,5.1-7.66,0,0,.51-2-5.1-7.65,0,0-2.55-8.16,2.55-10.2,0,0,6.64-1.54,6.64-7.66,0,0,2-4.59,6.63-5.61,0,0,5.1-9.18,9.69-12.75,0,0,3.57-2.05,4.08-8.17,0,0,8.17-8.16,5.11-10.2A16.76,16.76,0,0,1,573,339s10.2-13.77,11.73-22.95a141.78,141.78,0,0,0,24-26s2.55-12.24,10.2-21.42c0,0,2.56-5.62-.51-10.21,0,0-4.08-9.18,1-25,0,0,8.17-36.73,11.23-18.88,0,0,1.53,16.84,9.69,19.9,0,0,7.15,3.57,4.59-5.61,0,0-6.12-7.14-7.65-19.39,0,0,3.06-6.63-2.55-20.41,0,0,8.67-25,8.16-31.12,0,0-2-19.9,1.53-29.08,0,0-4.59-27.55-6.63-30.61,0,0-2.55-7.14-1.53-10.21,0,0,3.06,4.6,6.63,2,0,0,4.6-3.06-1.53-7.65a19,19,0,0,1-2-8.67s1-4.08-2.55-5.1c0,0-6.12-3.07,5.61-11.23,0,0,4.09-6.63,7.15-11.73l-3.58-4.08s5.62,0,7.66-2.56a16.29,16.29,0,0,1,2.55-9.69c3.06-4.59-.51-2.55-.51-2.55l7.65-7.14s7.65-3.57,11.23-8.17l3.57-4.59h0s5.1-8,16.32-6.82Z" transform="translate(-197.22 0.25)"/><path class="cls-1" d="M474.61,176.85s.52,6.71,4.33,1.22a48.92,48.92,0,0,0,2.08-6.91s.34-6.3-4.33-1C476.69,170.15,474.06,174.53,474.61,176.85Z" transform="translate(-197.22 0.25)"/><path class="cls-3" d="M515.37,155.36s8-29.35,12.73-26.77c0,0,1.31.2,1.15,3,0,0-9.12,21.79-13.88,24.79Z" transform="translate(-197.22 0.25)"/><path class="cls-3" d="M477.78,131.35s-8.21,3.08-13,0c0,0-14.53-3-7.93,9.74C456.8,141.09,456.92,148.08,477.78,131.35Z" transform="translate(-197.22 0.25)"/><path class="cls-3" d="M582.31,52.08s-19.82.45-17.62,8.37C564.69,60.45,566,66.18,582.31,52.08Z" transform="translate(-197.22 0.25)"/><path class="cls-3" d="M584.51,49s-10.57.88-7.49-5.28C577,43.72,581.86,38,584.51,49Z" transform="translate(-197.22 0.25)"/><path class="cls-3" d="M422.67,315.42s-21.8-3.08-16.07-12.77C406.6,302.65,410.12,298.25,422.67,315.42Z" transform="translate(-197.22 0.25)"/><path class="cls-3" d="M427.3,308.79s-9.69-11.42,0-20.67c0,0,6.16.88,2.64,6.17C429.94,294.29,425,303.69,427.3,308.79Z" transform="translate(-197.22 0.25)"/><path class="cls-3" d="M502.45,216.34s-14.82,15.85-5.14,29.07c0,0,8.15,1.39,5.14-11.89C502.45,233.52,498.78,218.1,502.45,216.34Z" transform="translate(-197.22 0.25)"/><path class="cls-4" d="M636.8,182.58s-22.84-1.94-33.89-13.79c0,0,20-11.94,37.51,1.08Z" transform="translate(-197.22 0.25)"/><path class="cls-5" d="M355.73,276.86s-2.42,4.41,2.21,4.25c0,0,2.63-.26,4.95-4.25,0,0,1.68-4.09-3.27-3C359.62,273.89,356.36,274.61,355.73,276.86Z" transform="translate(-197.22 0.25)"/><path class="cls-5" d="M352.15,268.06s2.53.41,3,2.15c0,0,1.16,5.32-3,6.55,0,0-3-.19-2.1-3.06C350.05,273.7,350.37,269.8,352.15,268.06Z" transform="translate(-197.22 0.25)"/><path class="cls-5" d="M348.89,279.22s4.49-2.05,3.67,2.86c0,0-.72,5.12-3.67,3.38C348.89,285.46,346.26,283.31,348.89,279.22Z" transform="translate(-197.22 0.25)"/><path class="cls-5" d="M355.25,283.1s-4.47,2.34-.15,5.47a8.35,8.35,0,0,0,5.68,0,14.39,14.39,0,0,1,2.38-1.06s.88-3.48-2.27-4.41C360.89,283.1,357.29,282.08,355.25,283.1Z" transform="translate(-197.22 0.25)"/><path class="cls-5" d="M358.25,265.5s2-4,4.32-2.22c0,0,1.37.28,1.16,2.94,0,0-.41,4.3-2.73,5,0,0-2.55.41-2.75-2C358.25,269.19,357.5,266.67,358.25,265.5Z" transform="translate(-197.22 0.25)"/><path class="cls-5" d="M364.25,271.26a3.33,3.33,0,0,1,3.58-2.07s2.63-.09,3.37,1c0,0,1.37,1.94-1.58,2.65,0,0-3.89,1.61-4.63,0C365,272.87,363.76,272.11,364.25,271.26Z" transform="translate(-197.22 0.25)"/><path class="cls-5" d="M352.66,290.58a7.5,7.5,0,0,1,5.26,1.76s1.18,0,.76,2.94c0,0-.14,2.05-6.12,0,0,0-3.38-1.12-2.37-4A1.67,1.67,0,0,1,352.66,290.58Z" transform="translate(-197.22 0.25)"/><path class="cls-5" d="M367.2,262.81a2.72,2.72,0,0,0-1.68,3.41s1.05,2.45,4.42.81c0,0,3.15-.71,3.47-2.86,0,0,.73-2.45-2.42-2.25A16.77,16.77,0,0,0,367.2,262.81Z" transform="translate(-197.22 0.25)"/><path class="cls-5" d="M371,276.15s-5.48.1-3.16,3.68a3.33,3.33,0,0,0,4.42,1.74s3.89-.51,4.52-1.94a2.77,2.77,0,0,0-.94-2.87A6.22,6.22,0,0,0,371,276.15Z" transform="translate(-197.22 0.25)"/><path class="cls-5" d="M367.83,284s-5.78,2.46-.58,5.08a7.56,7.56,0,0,0,4.81-.52s3.08-1.27,1.42-3.32C373.48,285.25,373.93,283.07,367.83,284Z" transform="translate(-197.22 0.25)"/><path class="cls-5" d="M365.08,291s-5.11.41-1.92,3.69a6.93,6.93,0,0,0,4.67,0s3.26-.35.84-2.63C368.67,292,368.54,291,365.08,291Z" transform="translate(-197.22 0.25)"/><path class="cls-5" d="M374.78,290.25s-6.35,1.66-.81,4.83c0,0,1.54,1.23,5.12-.62,0,0,3.05-.41.53-3.48A3.93,3.93,0,0,0,374.78,290.25Z" transform="translate(-197.22 0.25)"/><path class="cls-5" d="M360.05,296.92s-4.94,2.15-1.28,3.89a17.68,17.68,0,0,0,5.37,2.15s2.76.2,1.7-3.58C365.84,299.38,362.57,296.51,360.05,296.92Z" transform="translate(-197.22 0.25)"/><path class="cls-5" d="M369.57,299.92s-4.33.17-.14,3.86c0,0,5.95,2.66,4.54-2.36A7.79,7.79,0,0,0,369.57,299.92Z" transform="translate(-197.22 0.25)"/><path class="cls-5" d="M383.61,299.92s1.6-2.48-2-3.73c0,0-6,1.65-5.45,5,0,0,.32,3.26,3.89,1Z" transform="translate(-197.22 0.25)"/><path class="cls-5" d="M375.41,265.4s-4.87,5.14,1.46,4.31a14.15,14.15,0,0,0,2.43-2.11s1.68-3.22-1.05-3.32C378.25,264.28,375.72,264,375.41,265.4Z" transform="translate(-197.22 0.25)"/><path class="cls-5" d="M382.35,269.71c.54,0,3.37-.21,3.79.09,0,0,1.47.91,2.42,1.58,0,0,1.12,5.88-3.1,3.64-.58-.31-1.83-.65-5.41-2.42C380.05,272.6,378.56,269.62,382.35,269.71Z" transform="translate(-197.22 0.25)"/><path class="cls-5" d="M380.62,275.53s-3.74,2.15.47,4c0,0,3.89,1.31,4.94-.62,0,0,1.23-2.27-1.8-3C384.23,275.93,381.56,274.77,380.62,275.53Z" transform="translate(-197.22 0.25)"/><path class="cls-5" d="M388.69,279.32a3.21,3.21,0,0,0-1.81,3.89s-.21,2.42.84,3.05c0,0,2.63.64,3.26-2.49C391,283.77,391.36,279.74,388.69,279.32Z" transform="translate(-197.22 0.25)"/><path class="cls-5" d="M381.3,281.87s-7.16,3.18-2.21,5.64c0,0,1.58,1.11,4.31-2.82C383.4,284.69,385.09,281.86,381.3,281.87Z" transform="translate(-197.22 0.25)"/><path class="cls-5" d="M384.77,291s1.9-4.32,3.47-2.41A3.22,3.22,0,0,1,389.4,291s.6,6.74-3.12,5.21C386.28,296.19,383.3,296.72,384.77,291Z" transform="translate(-197.22 0.25)"/><path class="cls-6" d="M508.75,352.5s-2.42,4.41,2.21,4.25c0,0,2.63-.26,4.95-4.25,0,0,1.68-4.09-3.27-3C512.64,349.53,509.38,350.25,508.75,352.5Z" transform="translate(-197.22 0.25)"/><path class="cls-6" d="M505.17,343.7s2.53.41,2.95,2.15c0,0,1.16,5.32-2.95,6.55,0,0-3.05-.19-2.1-3.06C503.07,349.34,503.38,345.44,505.17,343.7Z" transform="translate(-197.22 0.25)"/><path class="cls-6" d="M501.91,354.85s4.49-2,3.67,2.87c0,0-.72,5.12-3.67,3.38C501.91,361.1,499.28,359,501.91,354.85Z" transform="translate(-197.22 0.25)"/><path class="cls-6" d="M508.27,358.74s-4.47,2.34-.15,5.47a8.35,8.35,0,0,0,5.68,0,15.29,15.29,0,0,1,2.38-1.07s.88-3.48-2.27-4.4C513.91,358.74,510.31,357.72,508.27,358.74Z" transform="translate(-197.22 0.25)"/><path class="cls-6" d="M511.27,341.14s2-4,4.32-2.22c0,0,1.37.28,1.16,2.94,0,0-.41,4.3-2.73,5,0,0-2.55.41-2.75-2C511.27,344.83,510.52,342.31,511.27,341.14Z" transform="translate(-197.22 0.25)"/><path class="cls-6" d="M517.27,346.9a3.33,3.33,0,0,1,3.58-2.07s2.63-.09,3.37,1c0,0,1.37,1.93-1.58,2.65,0,0-3.89,1.61-4.63,0C518,348.51,516.78,347.74,517.27,346.9Z" transform="translate(-197.22 0.25)"/><path class="cls-6" d="M505.68,366.21a7.54,7.54,0,0,1,5.26,1.77s1.18,0,.76,2.94c0,0-.14,2.05-6.12,0,0,0-3.38-1.12-2.37-4A1.68,1.68,0,0,1,505.68,366.21Z" transform="translate(-197.22 0.25)"/><path class="cls-6" d="M520.22,338.45a2.72,2.72,0,0,0-1.68,3.41s1.05,2.44,4.42.81c0,0,3.15-.71,3.47-2.86,0,0,.73-2.45-2.42-2.25A16.65,16.65,0,0,0,520.22,338.45Z" transform="translate(-197.22 0.25)"/><path class="cls-6" d="M524,351.78s-5.48.11-3.16,3.69a3.33,3.33,0,0,0,4.42,1.74s3.89-.51,4.52-1.95a2.75,2.75,0,0,0-.94-2.86A6.24,6.24,0,0,0,524,351.78Z" transform="translate(-197.22 0.25)"/><path class="cls-6" d="M520.85,359.65s-5.78,2.46-.58,5.08a7.56,7.56,0,0,0,4.81-.52s3.08-1.27,1.42-3.32C526.5,360.89,527,358.71,520.85,359.65Z" transform="translate(-197.22 0.25)"/><path class="cls-6" d="M518.1,366.62s-5.11.41-1.92,3.69a6.93,6.93,0,0,0,4.67,0s3.26-.35.84-2.63C521.69,367.68,521.56,366.62,518.1,366.62Z" transform="translate(-197.22 0.25)"/><path class="cls-6" d="M527.8,365.89s-6.35,1.65-.81,4.83c0,0,1.54,1.22,5.12-.62,0,0,3-.41.53-3.48A3.92,3.92,0,0,0,527.8,365.89Z" transform="translate(-197.22 0.25)"/><path class="cls-6" d="M513.07,372.56s-4.94,2.15-1.28,3.89a18,18,0,0,0,5.37,2.15s2.76.2,1.7-3.59C518.86,375,515.59,372.15,513.07,372.56Z" transform="translate(-197.22 0.25)"/><path class="cls-6" d="M522.59,375.56s-4.33.17-.14,3.85c0,0,5.94,2.67,4.54-2.35A7.79,7.79,0,0,0,522.59,375.56Z" transform="translate(-197.22 0.25)"/><path class="cls-6" d="M536.63,375.56s1.6-2.48-2-3.73c0,0-6,1.65-5.45,5,0,0,.32,3.26,3.89,1Z" transform="translate(-197.22 0.25)"/><path class="cls-6" d="M528.43,341s-4.87,5.14,1.46,4.31a14.15,14.15,0,0,0,2.43-2.11s1.68-3.22-1.05-3.33C531.27,339.91,528.74,339.61,528.43,341Z" transform="translate(-197.22 0.25)"/><path class="cls-6" d="M535.37,345.35c.54,0,3.37-.22,3.79.09,0,0,1.47.91,2.42,1.58,0,0,1.12,5.88-3.1,3.64-.58-.31-1.83-.65-5.41-2.42C533.07,348.24,531.58,345.26,535.37,345.35Z" transform="translate(-197.22 0.25)"/><path class="cls-6" d="M533.64,351.17s-3.74,2.15.47,4c0,0,3.89,1.31,4.94-.62,0,0,1.23-2.27-1.8-3C537.25,351.57,534.58,350.41,533.64,351.17Z" transform="translate(-197.22 0.25)"/><path class="cls-6" d="M541.71,355a3.21,3.21,0,0,0-1.81,3.89s-.21,2.42.84,3c0,0,2.63.64,3.26-2.49C544,359.41,544.38,355.38,541.71,355Z" transform="translate(-197.22 0.25)"/><path class="cls-6" d="M534.32,357.51s-7.16,3.18-2.21,5.63c0,0,1.58,1.12,4.31-2.81C536.42,360.33,538.11,357.5,534.32,357.51Z" transform="translate(-197.22 0.25)"/><path class="cls-6" d="M537.79,366.62s1.9-4.32,3.47-2.41a3.22,3.22,0,0,1,1.16,2.41s.6,6.73-3.12,5.21C539.3,371.83,536.32,372.35,537.79,366.62Z" transform="translate(-197.22 0.25)"/><path class="cls-4" d="M326.5,272.3s.27,4.25,2.85,5.19l12.27.35s-9.73-43.35-8.08-59.15c0,0,1.95-2.09,3.24.25l17.3,35.8s10.56,1.63,9.24-5.77c0,0-5.1-37.45,1.48-54.94,0,0,2.89-2.27,4.18,4.46l9.38,49s1.14,14.59,14.84,9.41l-13.1-64.5s-2.48-14.53-12.36-11.8c0,0-11.51,2.28-11,18.24,0,0,.15,23.53.22,39.79L336.23,201s-5.56-8.78-15.07-2.86c0,0-5.42-1.08-.32,19.46Z" transform="translate(-197.22 0.25)"/><path class="cls-7" d="M399,211.26s5-.36,5,4.54l-2.58,16.7s-.35,7,3.61,5.91c0,0,3.27.46,7.23-17,0,0,1.62-17.11,8.21-16.46,0,0,8-3,2.9,8.58,0,0-2,1.5-1.5-1.83,0,0,.8-4.51-1.66-3.4,0,0-4.51,5-3.67,17.29,0,0,1.41,7,6-.7l7.56-15.49s1.2-15.87,4.62-37.61c0,0,.48-5.27,3.59-5.4,0,0,4-.73,2.8,8.3l-3.65,30.58s.57,2.7,1.47-.72c0,0,1.51-10.54,5.62-11,0,0,5.58-1.52,6.1,4.7L450.59,220s-1,5.24,2.81,4.7l7-16.85s-.87-13.74,6.28-17.72c0,0,6.32-2.8,6.34,1.95,0,0,1.51,9.14-8.05,11.85,0,0,0,8,3.88,5,0,0,5.25-3.11,10.85-16.37,0,0,1.6-26.1,4.3-37,0,0,.44-3.78,2.84-3,0,0,3.11,1.1,1.82,5.4l-3.2,38.6s.45,11.29,3.8,8.23l8.63-16.44s-.27-8.52,5.4-10.59a5.87,5.87,0,0,1,7.11,1.17l5.33-1.65s2-30.24,4.3-35c0,0,.74-6.12,6.34-.51,0,0,3,1.08-3.34,31.3a9,9,0,0,1,8.11,6.17s7.13-3.44,8.33-11.06c0,0,2.16-1.91,1.22,2.41,0,0-.27,5.07-8.48,12.23,0,0,4.35,7.82-2,17.75,0,0-3.39,5.38-7.46,1,0,0-5.4-8.06-7.31-21.23L511,181.84A21.12,21.12,0,0,1,508.93,198s-2,4-7.89.81a10.66,10.66,0,0,1-3-3.66l-5.51,13.3s-1.95,7.22-9.54-.05c0,0-2.3-2.94-3.58-9.79,0,0-5.53,14.28-11.19,16,0,0-4.61,2.6-6.82-4.16l-5.5,18.8s-3,4.64-7.39.86c0,0-2.82-1.87-3.86-9.62l-.24-20.2s-.51-2.72-2,.29l-4.63,15.31s4.18,10.55,1.42,10.29c0,0-5-.61-5.4-3.6l-3-8.72s-5.17,20.4-12.38,19.12a4.93,4.93,0,0,1-4.87-3.86s-5.22,15.36-10.47,12.6c0,0-7.53-2.21-7.31-13.13Z" transform="translate(-197.22 0.25)"/><path class="cls-3" d="M517.7,175.08s.5-14.65,2.14-19.22c0,0,1.66-3,2,.34,0,0-1.08,7.46-2.35,17.71C519.46,173.91,519.51,175.26,517.7,175.08Z" transform="translate(-197.22 0.25)"/><path class="cls-3" d="M523.49,176.47s-.44,4.72,4.44,4A4.08,4.08,0,0,0,523.49,176.47Z" transform="translate(-197.22 0.25)"/><path class="cls-3" d="M522.49,182.27s5.14,1.83,5.74,1.18a16.36,16.36,0,0,1-2.53,14.12S520.9,188.05,522.49,182.27Z" transform="translate(-197.22 0.25)"/><path class="cls-8" d="M505.51,179.45a1.73,1.73,0,0,1,2.57.33A2,2,0,0,1,505.51,179.45Z" transform="translate(-197.22 0.25)"/><path class="cls-1" d="M506.45,182.23s-6.61,6.91-3.25,14.74C503.2,197,511.94,192.41,506.45,182.23Z" transform="translate(-197.22 0.25)"/><path class="cls-1" d="M465.3,200.69s-2.61-5.32,4.05-9C469.35,191.65,473.94,197.66,465.3,200.69Z" transform="translate(-197.22 0.25)"/><path class="cls-8" d="M400.52,199.94s-2.42,5.94-2,7.24a2.65,2.65,0,0,0,3.53,2.22s1.73-5.22,1.85-6.38A4.3,4.3,0,0,0,400.52,199.94Z" transform="translate(-197.22 0.25)"/><path class="cls-4" d="M427,221.85s4.34-6.5,5-4.62l-1.18-3.42Z" transform="translate(-197.22 0.25)"/><path class="cls-9" d="M441.17,204.74s-2.83,8.78-2,14.92-4.3-5.85-4.3-5.85l6.33-9.8Z" transform="translate(-197.22 0.25)"/><path class="cls-4" d="M466.43,192.78s4.2-.52,4.14,1.32l-.72-4.18Z" transform="translate(-197.22 0.25)"/><path class="cls-4" d="M501.22,194.1s3,2.6,4.29,1.07l-2.15,3.06Z" transform="translate(-197.22 0.25)"/><path class="cls-4" d="M504.83,184.35a2,2,0,0,1,2.69,0c1.63,1.17-.72-2.8-.72-2.8Z" transform="translate(-197.22 0.25)"/><path class="cls-4" d="M523.37,191.65s2.71,6,4.56.36v7.05l-4.56-.83Z" transform="translate(-197.22 0.25)"/><path class="cls-4" d="M505.51,178.49a3.48,3.48,0,0,0-.26,2l-2.13-.42Z" transform="translate(-197.22 0.25)"/><path class="cls-6" d="M282.86,71S279.77,58.69,271,81.15c0,0,.88,26.86,1.76,37.43,0,0,3.08,9.69,6.6-2.64Z" transform="translate(-197.22 0.25)"/><path class="cls-6" d="M226.93,99.2s4-14.53,8.81-14.53c0,0,4,0,11,40.08,0,0,1.76,17.49-6.61,3.68Z" transform="translate(-197.22 0.25)"/><path class="cls-6" d="M199.19,136.64s-9.14-7.61,11.94-8.21L230,147.64s7.05,7.93-6.16,5.73C223.85,153.37,214.6,152.05,199.19,136.64Z" transform="translate(-197.22 0.25)"/><path class="cls-10" d="M379.73,297.39a91.65,91.65,0,0,1,2.35,23.89s-2,30.37,14.55,26.62c0,0,11.44-.48,20.37-25.5l6.8,21.69s-.43,5.76,5.06,1.27a21.1,21.1,0,0,0,2.68-7.66l-12.15-55.28s-9.79,1.67-7.26,16.92c0,0-2.18,34.26-13.8,37.74,0,0-8,.56-8-11.67l.11-29.69s.47-10.3-4.8-6.77C385.63,289,379,293.74,379.73,297.39Z" transform="translate(-197.22 0.25)"/><path class="cls-10" d="M427,262.83s4.07-10.74,7.8-7.91c0,0,11.26,65.12,11.8,67.71,0,0,2.92,9.74,4.66,11.62,0,0-2.86,10-7.8,7.92,0,0-5.59-5.28-11-42.31Z" transform="translate(-197.22 0.25)"/><path class="cls-4" d="M453.53,275.76l-1.29-20.17s6.17-14.41,6.94-6.41c0,0,2.09,23.14,2.43,24.42l-.34-1.28,11.8-3.61s4.12,3.46-.9,10.27L462,281.71s3.42,26.44,9.7,31.14c0,0,2.71,1.84,7.65-2.05,0,0,6.41-6.33,6.4,2.39,0,0-4.21,16-19.07,11.6,0,0-7-3.93-8-13.93l-5.27-25.43-5,4.86s-3.52,4.09-3.74-4.4C444.62,285.89,444.29,282.11,453.53,275.76Z" transform="translate(-197.22 0.25)"/><path class="cls-4" d="M481.66,272.91s-4.43-1.4-1.42-5.77c0,0,3.55-6.77,6-3.29,0,0,6,8.73,7.14,15.25,0,0-1.93-22.65,9.66-25.27,0,0,4.18-2.39,5.55,3.17,0,0,2,4.37-4.62,8,0,0-5.94.74-4.24,16.87l5.88,29.39s-2.4,6.94-6.67,7.08c0,0-1.81,0-2.55-3l-7.78-31.65S485,273.67,481.66,272.91Z" transform="translate(-197.22 0.25)"/><path class="cls-4" d="M517.54,264.36s17-21.73,22.93-3.32c0,0-28.3,19.52-27.74,28.62,0,0-3.74,15.41,9.74,15.28,0,0,12.79.92,27.7-10.54,0,0,3.3,6.06,5.22,7.68,0,0,4.94,2.11,6.52-8.57,0,0-2.44-7.36-5.54-10.31,0,0-7.2-25.71-7.91-28,0,0-7.05-18.54-20.36-11.24,0,0-8,3.91-15.11,13.74,0,0-2.25,4.3-.85,6.7C512.14,264.36,514.14,268.12,517.54,264.36Z" transform="translate(-197.22 0.25)"/><path class="cls-1" d="M539.93,269.74l5,14.81s-13.25,11-21.05,9.23c0,0-5.37-.74-1.91-5.63C522,288.15,537,270.73,539.93,269.74Z" transform="translate(-197.22 0.25)"/><path class="cls-4" d="M284.18,334.1s12.1-18.13,27.34-21.42c0,0,1.16,22.68-18,30.82Z" transform="translate(-197.22 0.25)"/><path class="cls-11" d="M610.62,279.46s1.2-10.26-1.17-19.6c0,0-.53-1.56-4.22-3.48,0,0-3.51-1.94-10.45.48,0,0-19.44,8.2-20.16.86,0,0-1.72-6.72,15.19-5.83,0,0,11.76-.28,18.33,3.35a107.09,107.09,0,0,0-6.29-15s-3.72-1.29-6.62.83a51.34,51.34,0,0,0-6.89,2.36s-21.48,11.9-27.71,5.65c0,0-3.79-5.21,11.36-8l17.54-.68s9.48-1.52,10.33-3.55c0,0-5.56-7.47-7.54-10.06,0,0-.35-.77-1.81-.2,0,0-4.9-.66-7.24,1.59,0,0-14.23,10.48-26.66,8.77,0,0-11.41-2.73-4.24-10.73q.2-.22.42-.45c8-8.35,20.46,2.57,36.12-1.85,0,0,1.84.77-.16-1.2L584.22,219s-3.91,1-9.44-2.94c0,0-24.2-16.86-23.33-20.32,0,0-3.25-7.66,7.25-4,0,0,15.14,8.44,24,19.73a48.48,48.48,0,0,1,2.71,5.92l4.22,3.48s1.65,1.19.69-1c0,0-3-14.73-1.73-23.13,0,0-.19-6.58,5.46-5.63,0,0,6.09,1,3.33,10,0,0-5.81,14.67-3.42,21a14.73,14.73,0,0,0,4,8.13s4-4.26,5.16-14.07c0,0-.48-15,6.43-15.12,0,0,5.65.63,3.91,7.55,0,0,.91,2.71-14.89,23.11A38.43,38.43,0,0,1,606.48,245s6.72-4.76,7.73-11c0,0,1.22-14.91,7.58-17.23,0,0,6.24-1.78,4.87,6.1,0,0,1.71,3.33-10.51,15,0,0-6.83,7.52-8.27,10.06A34.19,34.19,0,0,1,612,262s.63.84,1.75-1.13c0,0,13.55-20.68,16.44-22,0,0,6.48-.46,5.15,5.36,0,0-.12,3-7.05,6.57,0,0-4.14,1-10.64,8.93-1.18,1.43-5.4,5.36-4.85,6.29,0,0,1,13,.25,14.51C613.06,280.5,611.64,283.84,610.62,279.46Z" transform="translate(-197.22 0.25)"/><path class="cls-12" d="M214.88,229.52s7.7,6.9,16.7,10.35c0,0,1.58.46,5.27-1.45,0,0,3.61-1.75,5.63-8.81,0,0,4.5-20.62,10.91-17,0,0,6.49,2.46-4,15.76,0,0-6.55,9.78-13.31,13A107.07,107.07,0,0,0,252,245s3.2-2.3,3.14-5.88a51.06,51.06,0,0,0,2-7s2.66-24.41,11.36-25.9c0,0,6.44-.1,0,13.9L259,234.79s-4.23,8.63-3.06,10.5c0,0,9.31-.24,12.57-.37,0,0,.84.16,1.21-1.36,0,0,3.36-3.62,2.88-6.84,0,0-.37-17.66,8.2-26.83,0,0,8.8-7.75,11.21,2.71,0,.2.08.4.13.61,2.19,11.36-13.9,15.24-19.32,30.58,0,0-1.69,1.06,1.08.56l5.64-1.56s1.48-3.75,7.85-6c0,0,27.72-10.06,30.05-7.35,0,0,8.14,1.75-.91,8.23,0,0-15.62,7.5-29.94,8.22a47.8,47.8,0,0,1-6.4-1.2l-5.28,1.45s-1.93.65.46,1.16c0,0,13.78,6,19.89,11.91,0,0,5.49,3.64,1.46,7.71,0,0-4.33,4.41-10.07-3,0,0-8.64-13.2-15.17-14.88a14.71,14.71,0,0,0-9-1.4s1.17,5.72,8.53,12.33c0,0,12.55,8.26,8.65,14,0,0-3.78,4.25-8.43-1.16,0,0-2.74-.82-10.3-25.49A38.42,38.42,0,0,1,245.4,246s0,8.23,4.53,12.66c0,0,11.47,9.59,9.7,16.12,0,0-2.14,6.13-7.79.47,0,0-3.7-.53-6.18-17.22,0,0-2.21-9.93-3.45-12.57a33.94,33.94,0,0,1-13.82-4.7s-1,0-.09,2.08c0,0,9.08,23,8.49,26.12,0,0-3.36,5.55-7.35,1.11,0,0-2.34-1.8-1.3-9.55,0,0,1.55-4-1.16-13.84-.5-1.79-1.27-7.5-2.35-7.59,0,0-11.21-6.7-12-8.16C212.62,230.91,210.72,227.83,214.88,229.52Z" transform="translate(-197.22 0.25)"/><path class="cls-13" d="M602.43,104.09s-.85,4.81-2.77,2.18L580.31,79.94s-2.7-2.69.66-2.3c0,0,12.72.84,16.13,4.19,0,0,3,1.5,4.13,6.88C601.23,88.71,604,100.48,602.43,104.09Z" transform="translate(-197.22 0.25)"/><path class="cls-7" d="M599.45,114.66s.83,3.39-2.14,2.51l-10.4-2.84s-3.09-.57-.86-4.15c0,0,2.82-4.26,2-11.37,0,0-1.67-3.88,2-2.25C590.05,96.56,598,103.79,599.45,114.66Z" transform="translate(-197.22 0.25)"/><path class="cls-13" d="M583.22,111.18s6.17-7.3,1.3-19.19L579,80.33s-.45-2.83-2.36.11c0,0-5.18,11.53-2.11,21.2,0,0,1.21,4.48,5.87,9.88C580.42,111.52,581.81,113.5,583.22,111.18Z" transform="translate(-197.22 0.25)"/></svg>